<svg width="11" height="9" viewBox="0 0 11 9" fill="none" xmlns="http://www.w3.org/2000/svg">
<path d="M3.3369 0.227783C2.22979 0.227783 1.3291 1.18276 1.3291 2.35658C1.3291 3.5304 2.22979 4.48538 3.3369 4.48538C4.44401 4.48538 5.34472 3.5304 5.34472 2.35658C5.34472 1.18276 4.44404 0.227783 3.3369 0.227783Z" fill="white"/>
<path d="M7.9019 0.532471C7.89736 0.532471 7.89277 0.532492 7.88823 0.532514C7.42361 0.536359 6.98963 0.732533 6.66625 1.08494C6.34854 1.43112 6.17578 1.88781 6.17975 2.37087C6.18375 2.85392 6.36403 3.30769 6.68739 3.64861C7.0133 3.99216 7.44503 4.18084 7.9045 4.18084C7.90912 4.18084 7.91373 4.18082 7.91838 4.1808C8.383 4.17695 8.81698 3.98076 9.14036 3.62837C9.45807 3.28219 9.63083 2.8255 9.62685 2.34242C9.61858 1.34138 8.84611 0.532471 7.9019 0.532471Z" fill="white"/>
<path d="M7.98648 4.5293H7.81977C7.04332 4.5293 6.33477 4.82449 5.7998 5.30832C5.93365 5.41102 6.06105 5.52295 6.1818 5.64369C6.53801 5.9999 6.81773 6.41498 7.01324 6.87732C7.18941 7.29369 7.28996 7.7324 7.31338 8.18422H10.9999V7.54248C10.9999 5.88109 9.64809 4.5293 7.98648 4.5293Z" fill="white"/>
<path d="M6.66768 8.1841C6.60687 7.20463 6.11037 6.34311 5.36937 5.79096C4.83033 5.3892 4.16174 5.15137 3.4375 5.15137H3.23684C1.44912 5.15139 0 6.60049 0 8.3882V8.77234H6.67412V8.3882C6.67412 8.31967 6.67197 8.25156 6.66768 8.1841Z" fill="white"/>
</svg>
