<svg width="8" height="11" viewBox="0 0 8 11" fill="none" xmlns="http://www.w3.org/2000/svg">
<path d="M7.04 5.6812C7.04 5.4612 6.87177 5.29297 6.65177 5.29297C6.43177 5.29297 6.26353 5.4612 6.26353 5.6812C6.26353 7.19532 5.03412 8.42473 3.52 8.42473C2.00588 8.42473 0.776471 7.19532 0.776471 5.6812C0.776471 5.4612 0.608235 5.29297 0.388235 5.29297C0.168235 5.29297 0 5.4612 0 5.6812C0 7.48003 1.34588 8.99414 3.13177 9.18826V10.2236H1.72118C1.50118 10.2236 1.33294 10.3918 1.33294 10.6118C1.33294 10.8318 1.50118 11 1.72118 11H5.31882C5.53882 11 5.70706 10.8318 5.70706 10.6118C5.70706 10.3918 5.53882 10.2236 5.31882 10.2236H3.90824V9.18826C5.69412 8.99414 7.04 7.48003 7.04 5.6812Z" fill="white"/>
<path d="M3.52006 0C2.32947 0 1.35889 0.970588 1.35889 2.16118V5.66824C1.35889 6.87177 2.32947 7.82941 3.52006 7.84235C4.71064 7.84235 5.68122 6.87177 5.68122 5.68118V2.16118C5.68122 0.970588 4.71064 0 3.52006 0Z" fill="white"/>
</svg>
